# xmcd CD database file generated by OrangeCD 5.2
#
# Track frame offsets:
#	150
#	10742
#	21610
#	33612
#	46305
#	58157
#	64825
#	75440
#	85152
#	96667
#	107430
#	117382
#	129300
#	139910
#	149955
#	159605
#	172312
#	181985
#
# Disc length: 2575 seconds
#
# Revision: 1
# Processed by: cddbd v1.5.1PL0 Copyright (c) Steve Scherf et al.
# Submitted via: OrangeCD 5.2
#
DISCID=0b0a0d12
DTITLE=Clarence Henry - The Best Of Clarence 'Frogman' Henry
DYEAR=1993
DGENRE=Blues
TTITLE0=(I Don't Know Why I Love You) But I Do
TTITLE1=That's My Desire
TTITLE2=Just My Baby And Me
TTITLE3=If I Didn't Care
TTITLE4=Standing In The Need Of Love
TTITLE5=Why Can't You
TTITLE6=Since I Met You Baby
TTITLE7=I'm Just The Jealous Kind
TTITLE8=Please Mr. Bossman
TTITLE9=Ain't Got No Home
TTITLE10=Lonely Street
TTITLE11=See Saw
TTITLE12=The Glory Of Love
TTITLE13=You Made Me Love You
TTITLE14=A Little Too Much Love
TTITLE15=Your Picture
TTITLE16=Troubles Troubles
TTITLE17=You Always Hurt The One You Love
EXTD=
EXTT0=
EXTT1=
EXTT2=
EXTT3=
EXTT4=
EXTT5=
EXTT6=
EXTT7=
EXTT8=
EXTT9=
EXTT10=
EXTT11=
EXTT12=
EXTT13=
EXTT14=
EXTT15=
EXTT16=
EXTT17=
PLAYORDER=
